# xmcd
#
# Track frame offsets: 
#        150
#        16221
#        28625
#        46732
#        63863
#        79287
#        95350
#        110705
#        126706
#        141157
#        155838
#        170473
#        184820
#        200057
#        214986
#        245859
#        266000
#        281910
#        309094
#        323869
#
# Disc length: 4492 seconds
#
# Revision: 0
# Processed by: cddbd v1.5.2PL0 Copyright (c) Steve Scherf et al.
# Submitted via: ExactAudioCopy v1.0b3
#
DISCID=33118a14
DTITLE=Various Artist - Bass Breaker Vol. 1 - CD 1
DYEAR=1900
DGENRE=
TTITLE0=Paffendorf - La La La Girl (Short Version)
TTITLE1=The Real Booty Babes - Meet Her At The Loveparade (Radio Edit)
TTITLE2=Bangbros - 1, 2, 3...Feierschweinerei (Single Edit)
TTITLE3=Commander Tom Vs. Oliver Cats - I Can't Sleep! (Flips!de Radio
TTITLE3=Mix)
TTITLE4=Cascada - Ready For Love
TTITLE5=FX - Don't You Want Me 2006 (Single Cut)
TTITLE6=Limelight - Gotta Let You Go
TTITLE7=Monti - The Rhythm
TTITLE8=Rave Allstars - Wonderful Days 2006 (Radio Mix)
TTITLE9=Alex M. Vs. Marc Van Damme - Stand Up (DJ Dean Radio Edit)
TTITLE10=Mikesh - Dancehall
TTITLE11=2 Vibez - On My Way (Radio Edit)
TTITLE12=Mario Lopez - Lonely (Original Radio Cut)
TTITLE13=Bass Up! - Hold Me Back (Technorocker Radio)
TTITLE14=Flexxa - You Be Right (D-Tune Rmx)
TTITLE15=X2Y - Jam The Nightclub
TTITLE16=Aycan - Seduced (Central Seven Radio Edit)
TTITLE17=Liquid Bass - Hop And Pop (D-Tune Rmx)
TTITLE18=Brisby and Jingles - Here We Go (Radio Edit)
TTITLE19=Club Scene Investigators - Direct Dizko (Klubbheads Radio Edi
TTITLE19=t)
EXTD=
EXTT0=
EXTT1=
EXTT2=
EXTT3=
EXTT4=
EXTT5=
EXTT6=
EXTT7=
EXTT8=
EXTT9=
EXTT10=
EXTT11=
EXTT12=
EXTT13=
EXTT14=
EXTT15=
EXTT16=
EXTT17=
EXTT18=
EXTT19=
PLAYORDER=
